<svg id="visual" viewBox="0 0 960 540" width="960" height="540" xmlns="http://www.w3.org/2000/svg" xmlns:xlink="http://www.w3.org/1999/xlink" version="1.1"><rect width="960" height="540" fill="#a5a5a5"></rect><g><g transform="translate(799 424)"><path d="M0 -64.4L55.7 -32.2L55.7 32.2L0 64.4L-55.7 32.2L-55.7 -32.2Z" fill="none" stroke="#F5C637" stroke-width="2"></path></g><g transform="translate(186 537)"><path d="M0 -26L22.5 -13L22.5 13L0 26L-22.5 13L-22.5 -13Z" fill="none" stroke="#F5C637" stroke-width="2"></path></g><g transform="translate(536 227)"><path d="M0 -33L28.6 -16.5L28.6 16.5L0 33L-28.6 16.5L-28.6 -16.5Z" fill="none" stroke="#F5C637" stroke-width="2"></path></g><g transform="translate(585 443)"><path d="M0 -56L48.5 -28L48.5 28L0 56L-48.5 28L-48.5 -28Z" stroke="#F5C637" fill="none" stroke-width="2"></path></g><g transform="translate(838 221)"><path d="M0 -27L23.4 -13.5L23.4 13.5L0 27L-23.4 13.5L-23.4 -13.5Z" stroke="#F5C637" fill="none" stroke-width="2"></path></g><g transform="translate(670 39)"><path d="M0 -45L39 -22.5L39 22.5L0 45L-39 22.5L-39 -22.5Z" stroke="#F5C637" fill="none" stroke-width="2"></path></g><g transform="translate(434 364)"><path d="M0 -28L24.2 -14L24.2 14L0 28L-24.2 14L-24.2 -14Z" stroke="#F5C637" fill="none" stroke-width="2"></path></g><g transform="translate(383 186)"><path d="M0 -58L50.2 -29L50.2 29L0 58L-50.2 29L-50.2 -29Z" stroke="#F5C637" fill="none" stroke-width="2"></path></g><g transform="translate(233 233)"><path d="M0 -45L39 -22.5L39 22.5L0 45L-39 22.5L-39 -22.5Z" stroke="#F5C637" fill="none" stroke-width="2"></path></g><g transform="translate(148 366)"><path d="M0 -34L29.4 -17L29.4 17L0 34L-29.4 17L-29.4 -17Z" stroke="#F5C637" fill="none" stroke-width="2"></path></g><g transform="translate(277 432)"><path d="M0 -29L25.1 -14.5L25.1 14.5L0 29L-25.1 14.5L-25.1 -14.5Z" stroke="#F5C637" fill="none" stroke-width="2"></path></g><g transform="translate(50 106)"><path d="M0 -33L28.6 -16.5L28.6 16.5L0 33L-28.6 16.5L-28.6 -16.5Z" stroke="#F5C637" fill="none" stroke-width="2"></path></g><g transform="translate(188 48)"><path d="M0 -48L41.6 -24L41.6 24L0 48L-41.6 24L-41.6 -24Z" stroke="#F5C637" fill="none" stroke-width="2"></path></g><g transform="translate(37 279)"><path d="M0 -52L45 -26L45 26L0 52L-45 26L-45 -26Z" stroke="#F5C637" fill="none" stroke-width="2"></path></g><g transform="translate(25 520)"><path d="M0 -26L22.5 -13L22.5 13L0 26L-22.5 13L-22.5 -13Z" stroke="#F5C637" fill="none" stroke-width="2"></path></g><g transform="translate(921 490)"><path d="M0 -24L20.8 -12L20.8 12L0 24L-20.8 12L-20.8 -12Z" stroke="#F5C637" fill="none" stroke-width="2"></path></g><g transform="translate(508 21)"><path d="M0 -61L52.8 -30.5L52.8 30.5L0 61L-52.8 30.5L-52.8 -30.5Z" stroke="#F5C637" fill="none" stroke-width="2"></path></g><g transform="translate(700 529)"><path d="M0 -61L52.8 -30.5L52.8 30.5L0 61L-52.8 30.5L-52.8 -30.5Z" stroke="#F5C637" fill="none" stroke-width="2"></path></g><g transform="translate(461 532)"><path d="M0 -53L45.9 -26.5L45.9 26.5L0 53L-45.9 26.5L-45.9 -26.5Z" stroke="#F5C637" fill="none" stroke-width="2"></path></g><g transform="translate(335 52)"><path d="M0 -43L37.2 -21.5L37.2 21.5L0 43L-37.2 21.5L-37.2 -21.5Z" stroke="#F5C637" fill="none" stroke-width="2"></path></g><g transform="translate(845 1)"><path d="M0 -32L27.7 -16L27.7 16L0 32L-27.7 16L-27.7 -16Z" stroke="#F5C637" fill="none" stroke-width="2"></path></g><g transform="translate(711 326)"><path d="M0 -49L42.4 -24.5L42.4 24.5L0 49L-42.4 24.5L-42.4 -24.5Z" stroke="#F5C637" fill="none" stroke-width="2"></path></g><g transform="translate(957 351)"><path d="M0 -58L50.2 -29L50.2 29L0 58L-50.2 29L-50.2 -29Z" stroke="#F5C637" fill="none" stroke-width="2"></path></g><g transform="translate(957 174)"><path d="M0 -50L43.3 -25L43.3 25L0 50L-43.3 25L-43.3 -25Z" stroke="#F5C637" fill="none" stroke-width="2"></path></g><g transform="translate(655 169)"><path d="M0 -42L36.4 -21L36.4 21L0 42L-36.4 21L-36.4 -21Z" stroke="#F5C637" fill="none" stroke-width="2"></path></g></g></svg>