<svg id="visual" viewBox="0 0 960 540" width="960" height="540" xmlns="http://www.w3.org/2000/svg" xmlns:xlink="http://www.w3.org/1999/xlink" version="1.1"><rect width="960" height="540" fill="#A5A5A5"></rect><g><g transform="translate(442 520)"><path d="M0 -109.8L95.1 -54.9L95.1 54.9L0 109.8L-95.1 54.9L-95.1 -54.9Z" fill="none" stroke="#a370f0" stroke-width="3"></path></g><g transform="translate(514 58)"><path d="M0 -108L93.5 -54L93.5 54L0 108L-93.5 54L-93.5 -54Z" fill="none" stroke="#a370f0" stroke-width="3"></path></g><g transform="translate(87 198)"><path d="M0 -65L56.3 -32.5L56.3 32.5L0 65L-56.3 32.5L-56.3 -32.5Z" fill="none" stroke="#a370f0" stroke-width="3"></path></g><g transform="translate(741 280)"><path d="M0 -48L41.6 -24L41.6 24L0 48L-41.6 24L-41.6 -24Z" stroke="#a370f0" fill="none" stroke-width="3"></path></g><g transform="translate(675 500)"><path d="M0 -69L59.8 -34.5L59.8 34.5L0 69L-59.8 34.5L-59.8 -34.5Z" stroke="#a370f0" fill="none" stroke-width="3"></path></g><g transform="translate(936 531)"><path d="M0 -93L80.5 -46.5L80.5 46.5L0 93L-80.5 46.5L-80.5 -46.5Z" stroke="#a370f0" fill="none" stroke-width="3"></path></g><g transform="translate(818 15)"><path d="M0 -78L67.5 -39L67.5 39L0 78L-67.5 39L-67.5 -39Z" stroke="#a370f0" fill="none" stroke-width="3"></path></g><g transform="translate(200 401)"><path d="M0 -92L79.7 -46L79.7 46L0 92L-79.7 46L-79.7 -46Z" stroke="#a370f0" fill="none" stroke-width="3"></path></g><g transform="translate(260 26)"><path d="M0 -102L88.3 -51L88.3 51L0 102L-88.3 51L-88.3 -51Z" stroke="#a370f0" fill="none" stroke-width="3"></path></g><g transform="translate(402 268)"><path d="M0 -60L52 -30L52 30L0 60L-52 30L-52 -30Z" stroke="#a370f0" fill="none" stroke-width="3"></path></g><g transform="translate(3 523)"><path d="M0 -78L67.5 -39L67.5 39L0 78L-67.5 39L-67.5 -39Z" stroke="#a370f0" fill="none" stroke-width="3"></path></g><g transform="translate(956 207)"><path d="M0 -43L37.2 -21.5L37.2 21.5L0 43L-37.2 21.5L-37.2 -21.5Z" stroke="#a370f0" fill="none" stroke-width="3"></path></g></g></svg>