<svg id="visual" viewBox="0 0 960 540" width="960" height="540" xmlns="http://www.w3.org/2000/svg" xmlns:xlink="http://www.w3.org/1999/xlink" version="1.1"><rect width="960" height="540" fill="#A5A5A5"></rect><g><g transform="translate(848 535)"><path d="M0 -144L124.7 -72L124.7 72L0 144L-124.7 72L-124.7 -72Z" fill="none" stroke="#a370f0" stroke-width="3"></path></g><g transform="translate(909 7)"><path d="M0 -73L63.2 -36.5L63.2 36.5L0 73L-63.2 36.5L-63.2 -36.5Z" fill="none" stroke="#a370f0" stroke-width="3"></path></g><g transform="translate(343 418)"><path d="M0 -90L77.9 -45L77.9 45L0 90L-77.9 45L-77.9 -45Z" fill="none" stroke="#a370f0" stroke-width="3"></path></g><g transform="translate(653 302)"><path d="M0 -131L113.4 -65.5L113.4 65.5L0 131L-113.4 65.5L-113.4 -65.5Z" stroke="#a370f0" fill="none" stroke-width="3"></path></g><g transform="translate(74 214)"><path d="M0 -122L105.7 -61L105.7 61L0 122L-105.7 61L-105.7 -61Z" stroke="#a370f0" fill="none" stroke-width="3"></path></g><g transform="translate(363 129)"><path d="M0 -137L118.6 -68.5L118.6 68.5L0 137L-118.6 68.5L-118.6 -68.5Z" stroke="#a370f0" fill="none" stroke-width="3"></path></g><g transform="translate(48 517)"><path d="M0 -73L63.2 -36.5L63.2 36.5L0 73L-63.2 36.5L-63.2 -36.5Z" stroke="#a370f0" fill="none" stroke-width="3"></path></g></g></svg>